<svg xmlns="http://www.w3.org/2000/svg" xmlns:svgjs="http://svgjs.com/svgjs" xmlns:xlink="http://www.w3.org/1999/xlink" width="288" height="288"><svg xmlns="http://www.w3.org/2000/svg" width="288" height="288" viewBox="0 0 32 32"><g class="color000 svgShape" data-name="Layer 2"><path fill="#f1d1a9" d="M31 16A15 15 0 1 1 16 1a15 15 0 0 1 15 15ZM3 16A13 13 0 1 0 16 3 13 13 0 0 0 3 16Z" class="fill-000000 colorfff svgShape"/><path fill="#f1d1a9" d="M19.87 10.41 14.29 16l5.58 5.59a1 1 0 0 1 0 1.41 1 1 0 0 1-1.41 0l-6.36-6.36a.91.91 0 0 1 0-1.28L18.46 9a1 1 0 0 1 1.41 0 1 1 0 0 1 0 1.41Z" class="fill-000000 colorfff svgShape"/></g></svg></svg>