<svg width="1000" height="1000" viewBox="0 0 1000 1000" fill="none" xmlns="http://www.w3.org/2000/svg">
<rect width="1000" height="1000" fill="#E98B63"/>
<path d="M206.704 535.841V490.896C206.704 484.672 207.396 479.141 208.779 474.761C213.158 460.932 223.53 454.017 239.434 454.017C242.661 454.017 245.426 454.248 247.501 454.709V415.525L242.891 415.064C225.604 415.064 210.392 427.972 205.091 444.567H204.63L205.091 438.574V432.351C205.091 422.21 199.559 417.139 188.265 417.139H153V450.56H161.759C165.216 450.56 166.829 452.173 166.829 455.631V535.841H206.704Z" fill="#FFF8C4"/>
<path fill-rule="evenodd" clip-rule="evenodd" d="M357.931 522.412C345.654 534.025 330.483 539.802 312.242 539.741C294.001 539.681 278.462 533.803 266.032 522.108C253.834 510.181 247.647 495.456 247.706 477.509C247.765 459.562 254.051 444.453 266.327 432.839C278.835 420.993 294.001 415.217 312.242 415.277C330.483 415.337 345.796 421.214 358.226 433.143C370.656 444.838 376.839 459.562 376.779 477.509C376.72 495.456 370.439 510.566 357.931 522.412ZM312.439 520.651C308.342 520.651 294 501.044 294 476.858C294 452.671 308.342 433.064 312.439 433.064C318.586 433.064 330.878 452.671 330.878 476.858C330.878 501.044 317.561 520.651 312.439 520.651Z" fill="#FFF8C4"/>
<path fill-rule="evenodd" clip-rule="evenodd" d="M487.414 522.412C475.138 534.025 459.967 539.802 441.725 539.741C423.484 539.681 407.945 533.803 395.515 522.108C383.317 510.181 377.13 495.456 377.189 477.509C377.248 459.562 383.534 444.453 395.81 432.839C408.318 420.993 423.484 415.217 441.725 415.277C459.967 415.337 475.279 421.214 487.709 433.143C500.139 444.838 506.322 459.562 506.263 477.509C506.203 495.456 499.922 510.566 487.414 522.412ZM442.439 518.651C438.342 518.651 424 499.044 424 474.858C424 450.671 438.342 431.064 442.439 431.064C448.586 431.064 460.878 450.671 460.878 474.858C460.878 499.044 447.561 518.651 442.439 518.651Z" fill="#FFF8C4"/>
<path d="M560.171 536.533V487.438C560.171 483.059 560.632 478.219 561.785 473.148C565.012 458.627 572.157 451.251 582.99 451.251C589.213 451.251 592.21 456.322 592.21 466.233V536.533H632.084V487.438C632.084 482.598 632.545 478.219 633.467 474.07C636.233 460.24 643.609 451.251 654.903 451.251C661.126 451.251 664.122 456.322 664.122 466.233V519.707C664.122 531.462 669.193 536.533 680.948 536.533H717.827V503.112H709.068C705.611 503.112 703.997 501.498 703.997 498.041V459.549C703.997 428.433 688.785 415.064 665.505 415.064C648.91 415.064 634.159 424.054 627.475 435.117H627.014C620.79 421.749 609.727 415.064 593.823 415.064C579.763 415.064 568.008 421.979 559.019 435.578H558.558L558.789 432.812V431.199C558.789 422.901 553.026 417.83 542.193 417.83H506.467V451.251H515.226C518.683 451.251 520.297 452.865 520.297 456.322V536.533H560.171Z" fill="#FFF8C4"/>
<path d="M718.156 572.259L721.844 575.255C727.145 579.634 739.361 584.936 751.577 584.936C772.552 584.936 791.682 573.872 801.133 549.21L837.089 454.939C838.011 452.404 839.855 451.251 842.621 451.251H847V417.83H817.267C810.813 417.83 804.82 421.288 803.207 427.511L790.069 475.453C788.917 479.832 787.534 485.825 786.151 493.892H785.69L781.31 475.453L763.793 427.511C761.258 421.057 756.648 417.83 749.964 417.83H720.922V451.251H725.301C727.606 451.251 729.22 452.404 730.372 454.939L767.942 536.533L766.559 539.99C763.563 547.827 757.57 551.745 748.811 551.745C742.588 551.745 737.056 549.21 732.447 544.139L718.156 572.259Z" fill="#FFF8C4"/>
</svg>
