<svg id="Layer_1" data-name="Layer 1" xmlns="http://www.w3.org/2000/svg" viewBox="0 0 15 15"><path d="M14.41,12.91a.55.55,0,0,0-.48-.1,15.55,15.55,0,0,1-1.81.31l-.29-2a2.68,2.68,0,0,0,1.36-2.33V7.25a.56.56,0,0,0,.31-.72A.57.57,0,0,0,13,6.18h-.43V2.56A1.61,1.61,0,0,0,10.94,1H10.3A.54.54,0,0,0,9.79.6H5.57A.57.57,0,0,0,5.05,1H4.42A1.61,1.61,0,0,0,2.81,2.56V6.18H2.38a.56.56,0,0,0-.56.56.55.55,0,0,0,.35.51V8.82a2.68,2.68,0,0,0,1.36,2.33l-.3,2a15.92,15.92,0,0,1-1.81-.31.55.55,0,0,0-.67.41.56.56,0,0,0,.41.67h0a30.52,30.52,0,0,0,6.52.59,30.59,30.59,0,0,0,6.52-.59.55.55,0,0,0,.4-.68.54.54,0,0,0-.19-.3Zm-2.69.26-.3,0-.26-1.78c.09,0,.19-.05.28-.09ZM4.85,11.5h5.9L11,13.24c-1,.08-2.17.13-3.34.13s-2.31,0-3.34-.13l.26-1.75ZM2.58,7.29h10.2v.8l-.68.36L11.31,8a.21.21,0,0,0-.19,0l-.79.42L9.54,8a.21.21,0,0,0-.19,0l-.79.42L7.77,8a.21.21,0,0,0-.19,0l-.79.42L6,8a.23.23,0,0,0-.2,0L5,8.45,4.24,8a.21.21,0,0,0-.19,0l-.79.42-.68-.36ZM5.57,1H9.79a.14.14,0,0,1,.14.14.14.14,0,0,1-.14.15H5.57a.15.15,0,0,1-.15-.15A.15.15,0,0,1,5.57,1ZM9.78,3.85v.07l-.06,0a.21.21,0,0,0-.19,0l-.07,0V3.85a.2.2,0,0,0-.06-.18l-.05,0,.07,0a.21.21,0,0,0,.16-.11l0-.07,0,.07a.19.19,0,0,0,.15.11l.07,0-.05,0A.19.19,0,0,0,9.78,3.85Zm-2.1,0a.5.5,0,0,1,.5.5.51.51,0,0,1-.5.5.5.5,0,0,1-.5-.5A.5.5,0,0,1,7.68,3.9Zm-1.81,0,0,.07-.07,0a.21.21,0,0,0-.19,0l-.07,0,0-.07a.2.2,0,0,0-.06-.18l-.06,0,.08,0a.21.21,0,0,0,.15-.11l0-.07,0,.07a.21.21,0,0,0,.15.11l.08,0-.06,0A.22.22,0,0,0,5.87,3.85ZM3.22,2.56a1.2,1.2,0,0,1,1.2-1.2h.63a.58.58,0,0,0,.47.35v1.2l-.15.3L5,3.27a.2.2,0,0,0-.17.23.23.23,0,0,0,.06.12l.27.27-.06.37a.21.21,0,0,0,.3.22l.34-.18.33.18a.21.21,0,0,0,.28-.09.19.19,0,0,0,0-.13L6.3,3.89l.27-.27a.22.22,0,0,0,0-.29.34.34,0,0,0-.12-.06l-.38-.06-.15-.3V1.71H7.47v1.8a.91.91,0,0,0,.41,1.77.91.91,0,0,0,0-1.77V1.71H9.43v1.2l-.15.3-.38.06a.2.2,0,0,0-.17.23.14.14,0,0,0,.06.12l.27.27L9,4.26a.21.21,0,0,0,.17.24.19.19,0,0,0,.13,0l.34-.18.34.18a.21.21,0,0,0,.28-.09.19.19,0,0,0,0-.13l-.07-.37.28-.27a.21.21,0,0,0,0-.29.23.23,0,0,0-.12-.06L10,3.21l-.14-.3V1.71a.55.55,0,0,0,.46-.35h.64a1.2,1.2,0,0,1,1.2,1.2V6.18H3.22Zm-.84,4H13a.15.15,0,0,1,.15.15.15.15,0,0,1-.15.14H2.37a.14.14,0,0,1-.14-.14.15.15,0,0,1,.15-.15Zm.2,2.23V8.56l.58.31a.23.23,0,0,0,.2,0l.78-.42.79.42a.21.21,0,0,0,.19,0l.79-.42.79.42a.21.21,0,0,0,.19,0l.79-.42.78.42a.23.23,0,0,0,.2,0l.78-.42.79.42a.21.21,0,0,0,.19,0l.79-.42.79.42a.21.21,0,0,0,.19,0l.59-.31v.26a2.28,2.28,0,0,1-2.27,2.27H4.85A2.27,2.27,0,0,1,2.58,8.82Zm1.33,2.51.29.09L3.93,13.2l-.29,0Zm10.3,2a.15.15,0,0,1-.11.14,29.66,29.66,0,0,1-6.42.58,29.69,29.69,0,0,1-6.43-.58.15.15,0,0,1-.1-.18.22.22,0,0,1,.05-.08l.09,0h0a29.58,29.58,0,0,0,6.36.57A29.48,29.48,0,0,0,14,13.21a.19.19,0,0,1,.13,0,.17.17,0,0,1,.05.12Z"/></svg>