<svg id="Layer_1" data-name="Layer 1" xmlns="http://www.w3.org/2000/svg" viewBox="0 0 15 15"><path d="M14.53,7.34H2.82V6.88a.24.24,0,0,0-.24-.24H2.35v-.7h.47v.23a.23.23,0,1,0,.46,0V5.23a.23.23,0,1,0-.46,0v.24H2.35V2.66a.94.94,0,0,1,.93-.94h.94a.94.94,0,0,1,.94.94v0A1.4,1.4,0,0,0,4,4.06a.23.23,0,0,0,.23.24H6.57a.24.24,0,0,0,.23-.24A1.41,1.41,0,0,0,5.63,2.68v0A1.41,1.41,0,0,0,4.22,1.25H3.28a1.41,1.41,0,0,0-1.4,1.41v4H1.64a.23.23,0,0,0-.23.24v.46H.47a.23.23,0,0,0-.23.24v.7a.23.23,0,0,0,.23.24h.7v2.81a1.41,1.41,0,0,0,1.18,1.38v.49a.23.23,0,0,0,.23.24.24.24,0,0,0,.24-.24v-.47h9.37v.47a.24.24,0,1,0,.47,0v-.49a1.4,1.4,0,0,0,1.17-1.38V8.52h.7a.24.24,0,0,0,.24-.24v-.7A.24.24,0,0,0,14.53,7.34ZM5.39,3.13a.93.93,0,0,1,.91.7H4.49A.92.92,0,0,1,5.39,3.13Zm-3.51,4h.47v.23H1.88Zm11.48,4.22a.94.94,0,0,1-.94.94H2.58a.94.94,0,0,1-.94-.94V8.52H13.36Zm.94-3.28H.71V7.81H14.3Z"/><path d="M2.35,9.45H4.22a.23.23,0,0,0,.24-.23A.24.24,0,0,0,4.22,9H2.35a.24.24,0,0,0-.24.24A.23.23,0,0,0,2.35,9.45Z"/><path d="M4.92,9.45h.24a.23.23,0,0,0,.23-.23A.23.23,0,0,0,5.16,9H4.92a.24.24,0,0,0-.23.24A.23.23,0,0,0,4.92,9.45Z"/></svg>