<?xml version="1.0" encoding="iso-8859-1"?>
<!-- Generator: Adobe Illustrator 17.1.0, SVG Export Plug-In . SVG Version: 6.00 Build 0)  -->
<!DOCTYPE svg PUBLIC "-//W3C//DTD SVG 1.1//EN" "http://www.w3.org/Graphics/SVG/1.1/DTD/svg11.dtd">
<svg version="1.1" id="Capa_1" xmlns="http://www.w3.org/2000/svg" xmlns:xlink="http://www.w3.org/1999/xlink" x="0px" y="0px"
	 viewBox="0 0 470 470" style="enable-background:new 0 0 470 470;" xml:space="preserve">
<g>
	<path d="M464.721,51.671C464.721,23.179,441.541,0,413.05,0H56.95C28.459,0,5.279,23.179,5.279,51.671v311.404
		c0,25.944,19.222,47.475,44.171,51.12v13.179H12.779c-4.143,0-7.5,3.358-7.5,7.5s3.357,7.5,7.5,7.5H49.45V455H12.779
		c-4.143,0-7.5,3.358-7.5,7.5s3.357,7.5,7.5,7.5H56.95h344.124c28.491,0,51.671-23.18,51.671-51.671v-77.34
		c0-0.03-0.004-0.058-0.004-0.088c7.474-8.963,11.98-20.484,11.98-33.04V51.671z M401.074,455H64.45v-40.255h320.06
		c13.27,0,24.064-10.795,24.064-24.064c0-4.142-3.357-7.5-7.5-7.5s-7.5,3.358-7.5,7.5c0,4.998-4.066,9.064-9.064,9.064H56.95
		c-20.221,0-36.671-16.45-36.671-36.67V51.671C20.279,31.45,36.729,15,56.95,15h356.1c20.221,0,36.671,16.45,36.671,36.671v256.19
		c0,20.22-16.45,36.67-36.671,36.67H73.515c-13.27,0-24.064,10.795-24.064,24.064c0,4.142,3.357,7.5,7.5,7.5s7.5-3.358,7.5-7.5
		c0-4.998,4.066-9.064,9.064-9.064H413.05c8.939,0,17.354-2.284,24.695-6.295v65.093C437.745,438.549,421.295,455,401.074,455z"/>
	<path d="M403.394,108.5c4.411,0,8-3.589,8-8s-3.589-8-8-8s-8,3.589-8,8S398.982,108.5,403.394,108.5z"/>
	<path d="M107.394,277.116c4.411,0,8-3.589,8-8s-3.589-8-8-8s-8,3.589-8,8S102.982,277.116,107.394,277.116z"/>
	<path d="M82.394,251.116c4.411,0,8-3.589,8-8s-3.589-8-8-8s-8,3.589-8,8S77.982,251.116,82.394,251.116z"/>
</g>
<g>
</g>
<g>
</g>
<g>
</g>
<g>
</g>
<g>
</g>
<g>
</g>
<g>
</g>
<g>
</g>
<g>
</g>
<g>
</g>
<g>
</g>
<g>
</g>
<g>
</g>
<g>
</g>
<g>
</g>
</svg>
