<svg id="Layer_1" data-name="Layer 1" xmlns="http://www.w3.org/2000/svg" viewBox="0 0 15 15"><path d="M10.49,5.19l-.15-.52A1.12,1.12,0,0,0,8.91,4a1.11,1.11,0,0,0-.7.7l-.16.52A2.89,2.89,0,0,0,8,6.53a1.29,1.29,0,0,0,.66.88l-.18,3.93a.81.81,0,0,0,.19.6A.86.86,0,0,0,9.85,12l.06-.06a.77.77,0,0,0,.19-.58L9.92,7.41a1.25,1.25,0,0,0,.65-.88A2.76,2.76,0,0,0,10.49,5.19Zm-.4,1.25a.76.76,0,0,1-.5.59.24.24,0,0,0-.16.24l.18,4.13a.26.26,0,0,1-.07.22.39.39,0,0,1-.53,0,.27.27,0,0,1-.07-.24l.18-4.11A.24.24,0,0,0,9,7a.76.76,0,0,1-.5-.59,2.32,2.32,0,0,1,.06-1.11l.16-.52a.64.64,0,0,1,1.19,0l.16.52A2.32,2.32,0,0,1,10.09,6.44Z"/><path d="M6.71,3.91a.25.25,0,0,0-.25.24v2.1l-.66.66a.26.26,0,0,0-.07.19l.21,4.28a.34.34,0,0,1-.09.25.36.36,0,0,1-.49,0h0a.34.34,0,0,1-.09-.25L5.48,7.1a.23.23,0,0,0-.07-.19l-.66-.66V4.15a.25.25,0,0,0-.49,0v2.2a.29.29,0,0,0,.07.18L5,7.18l-.21,4.17a.83.83,0,1,0,1.65.08v-.08L6.22,7.18l.66-.65A.24.24,0,0,0,7,6.35V4.15A.24.24,0,0,0,6.71,3.91Z"/><path d="M5.24,3.91A.24.24,0,0,0,5,4.15v2a.24.24,0,0,0,.24.24.24.24,0,0,0,.24-.24v-2A.24.24,0,0,0,5.24,3.91Z"/><path d="M6,3.91a.24.24,0,0,0-.24.24v2a.25.25,0,0,0,.49,0v-2A.25.25,0,0,0,6,3.91Z"/><path d="M7.44.24a7.34,7.34,0,1,0,7.34,7.34A7.33,7.33,0,0,0,7.44.24Zm0,14.18a6.85,6.85,0,1,1,6.85-6.84A6.84,6.84,0,0,1,7.44,14.42Z"/><path d="M8.23,12.16A.23.23,0,0,0,8,12H8a4.52,4.52,0,0,1-1,0,.24.24,0,1,0,0,.48,4.35,4.35,0,0,0,1.14,0A.23.23,0,0,0,8.23,12.16Z"/><path d="M11.18,4.43a.24.24,0,0,0-.34,0h0a.23.23,0,0,0,0,.34,4.4,4.4,0,0,1-.26,5.95.24.24,0,0,0,0,.35.25.25,0,0,0,.34,0A4.88,4.88,0,0,0,11.18,4.43Z"/><path d="M5.8,3.47Z"/><path d="M8.59,2.82A4.94,4.94,0,0,0,5.72,3a.25.25,0,0,0-.15.31.25.25,0,0,0,.23.16h.09A4.41,4.41,0,0,1,8.48,3.3a.24.24,0,0,0,.29-.18A.24.24,0,0,0,8.59,2.82Z"/><path d="M4.32,10.68A4.4,4.4,0,0,1,3.88,5a.25.25,0,0,0,0-.35.25.25,0,0,0-.34.05h0A4.88,4.88,0,0,0,4,11a.25.25,0,0,0,.34,0A.24.24,0,0,0,4.32,10.68Z"/></svg>