<?xml version="1.0" standalone="no"?>
<!DOCTYPE svg PUBLIC "-//W3C//DTD SVG 20010904//EN"
 "http://www.w3.org/TR/2001/REC-SVG-20010904/DTD/svg10.dtd">
<svg version="1.0" xmlns="http://www.w3.org/2000/svg"
 width="64.000000pt" height="64.000000pt" viewBox="0 0 64.000000 64.000000"
 preserveAspectRatio="xMidYMid meet">

<g transform="translate(0.000000,64.000000) scale(0.100000,-0.100000)"
fill="#000000" stroke="none">
<path d="M150 451 l0 -190 58 -21 c69 -27 184 -24 245 5 l37 19 0 188 0 188
-170 0 -170 0 0 -189z m300 -11 l0 -159 -37 -10 c-49 -14 -137 -14 -185 0
l-38 10 0 159 0 160 130 0 130 0 0 -160z"/>
<path d="M230 470 l0 -80 90 0 90 0 0 80 0 80 -90 0 -90 0 0 -80z m150 0 l0
-40 -60 0 -60 0 0 40 0 40 60 0 60 0 0 -40z"/>
<path d="M300 325 c0 -8 9 -15 20 -15 11 0 20 7 20 15 0 8 -9 15 -20 15 -11 0
-20 -7 -20 -15z"/>
<path d="M263 166 c-9 -13 27 -36 57 -36 30 0 69 25 57 36 -11 11 -108 11
-114 0z"/>
<path d="M227 124 c-13 -14 -7 -24 25 -40 39 -20 131 -15 156 9 27 28 2 40
-43 21 -38 -15 -62 -13 -121 12 -5 2 -13 1 -17 -2z"/>
<path d="M177 73 c-14 -13 -6 -22 45 -47 33 -17 68 -26 98 -26 47 0 150 42
150 61 0 19 -26 19 -65 -1 -51 -26 -119 -26 -170 0 -43 22 -48 23 -58 13z"/>
</g>
</svg>
