<?xml version="1.0" encoding="iso-8859-1"?>
<!-- Generator: Adobe Illustrator 19.0.0, SVG Export Plug-In . SVG Version: 6.00 Build 0)  -->
<svg version="1.1" id="Layer_1" xmlns="http://www.w3.org/2000/svg" xmlns:xlink="http://www.w3.org/1999/xlink" x="0px" y="0px"
	 viewBox="0 0 512 512" style="enable-background:new 0 0 512 512;" xml:space="preserve">
<g>
	<g>
		<circle cx="93.091" cy="69.818" r="11.636"/>
	</g>
</g>
<g>
	<g>
		<circle cx="139.636" cy="69.818" r="11.636"/>
	</g>
</g>
<g>
	<g>
		<circle cx="186.182" cy="69.818" r="11.636"/>
	</g>
</g>
<g>
	<g>
		<circle cx="418.909" cy="69.818" r="11.636"/>
	</g>
</g>
<g>
	<g>
		<path d="M442.182,0H69.818C50.036,0,34.909,15.127,34.909,34.909v407.273c0,19.782,15.127,34.909,34.909,34.909v23.273
			c0,3.491,1.164,5.818,3.491,8.145c2.327,2.327,4.655,3.491,8.145,3.491H384c6.982,0,11.636-4.655,11.636-11.636
			s-4.655-11.636-11.636-11.636H93.091v-23.273c0-3.491-1.164-5.818-3.491-8.145s-4.655-3.491-8.145-3.491H69.818
			c-6.982,0-11.636-4.655-11.636-11.636V34.909c0-6.982,4.655-11.636,11.636-11.636h372.364c6.982,0,11.636,4.655,11.636,11.636
			v407.273c0,6.982-4.655,11.636-11.636,11.636H128c-6.982,0-11.636,4.655-11.636,11.636c0,6.982,4.655,11.636,11.636,11.636
			h290.909v23.273c0,6.982,4.655,11.636,11.636,11.636s11.636-4.655,11.636-11.636v-23.273c19.782,0,34.909-15.127,34.909-34.909
			V34.909C477.091,15.127,461.964,0,442.182,0z"/>
	</g>
</g>
<g>
	<g>
		<path d="M418.909,116.364H93.091c-6.982,0-11.636,4.655-11.636,11.636v290.909c0,6.982,4.655,11.636,11.636,11.636h325.818
			c6.982,0,11.636-4.655,11.636-11.636V128C430.545,121.018,425.891,116.364,418.909,116.364z M407.273,407.273H104.727V139.636
			h302.545V407.273z"/>
	</g>
</g>
<g>
	<g>
		<path d="M186.182,267.636c-32.582,0-58.182,25.6-58.182,58.182C128,358.4,153.6,384,186.182,384
			c32.582,0,58.182-25.6,58.182-58.182C244.364,293.236,218.764,267.636,186.182,267.636z M186.182,360.727
			c-19.782,0-34.909-15.127-34.909-34.909c0-19.782,15.127-34.909,34.909-34.909s34.909,15.127,34.909,34.909
			C221.091,345.6,205.964,360.727,186.182,360.727z"/>
	</g>
</g>
<g>
	<g>
		<path d="M256,267.636c-6.982,0-11.636,4.655-11.636,11.636c0,6.982,4.655,11.636,11.636,11.636
			c19.782,0,34.909,15.127,34.909,34.909c0,19.782-15.127,34.909-34.909,34.909c-6.982,0-11.636,4.655-11.636,11.636
			S249.018,384,256,384c32.582,0,58.182-25.6,58.182-58.182C314.182,293.236,288.582,267.636,256,267.636z"/>
	</g>
</g>
<g>
	<g>
		<path d="M325.818,267.636c-6.982,0-11.636,4.655-11.636,11.636c0,6.982,4.655,11.636,11.636,11.636
			c19.782,0,34.909,15.127,34.909,34.909c0,19.782-15.127,34.909-34.909,34.909c-6.982,0-11.636,4.655-11.636,11.636
			S318.836,384,325.818,384C358.4,384,384,358.4,384,325.818C384,293.236,358.4,267.636,325.818,267.636z"/>
	</g>
</g>
<g>
	<g>
		<path d="M256,162.909c-6.982,0-11.636,4.655-11.636,11.636v46.545c0,6.982,4.655,11.636,11.636,11.636s11.636-4.655,11.636-11.636
			v-46.545C267.636,167.564,262.982,162.909,256,162.909z"/>
	</g>
</g>
<g>
	<g>
		<path d="M335.127,216.436l-23.273-46.545c-2.327-5.818-9.309-8.145-15.127-4.655c-5.818,2.327-8.145,9.309-4.655,15.127
			l23.273,45.382c2.327,4.655,5.818,6.982,10.473,6.982c2.327,0,3.491,0,4.655-1.164
			C336.291,229.236,338.618,222.255,335.127,216.436z"/>
	</g>
</g>
<g>
	<g>
		<path d="M215.273,164.073c-5.818-2.327-12.8,0-15.127,4.655l-23.273,46.545c-3.491,5.818-1.164,12.8,4.655,16.291
			c1.164,1.164,2.327,1.164,4.655,1.164c4.655,0,8.145-2.327,10.473-6.982l23.273-46.545
			C222.255,173.382,219.927,166.4,215.273,164.073z"/>
	</g>
</g>
<g>
</g>
<g>
</g>
<g>
</g>
<g>
</g>
<g>
</g>
<g>
</g>
<g>
</g>
<g>
</g>
<g>
</g>
<g>
</g>
<g>
</g>
<g>
</g>
<g>
</g>
<g>
</g>
<g>
</g>
</svg>
