<svg id="Layer_1" data-name="Layer 1" xmlns="http://www.w3.org/2000/svg" viewBox="0 0 15 15"><path d="M3.65,7.45A3.75,3.75,0,0,1,1.06,6.39,3.54,3.54,0,0,1,0,3.85,3.58,3.58,0,0,1,1.28,1.11a3.7,3.7,0,0,1,3-.81l7.27,1.29a.42.42,0,0,1,.36.42V5.69a.42.42,0,0,1-.36.42l-4.14.73a32.5,32.5,0,0,1-3.67.61h-.1Zm0-6.34a2.85,2.85,0,0,0-1.82.66,2.72,2.72,0,0,0-1,2.08,2.65,2.65,0,0,0,.81,1.92,2.87,2.87,0,0,0,2,.82h0c.17,0,.24,0,3.52-.59l3.79-.67v-3L4.14,1.15a2.63,2.63,0,0,0-.49,0Z"/><path d="M3.67,5.2A1.35,1.35,0,1,1,5,3.85,1.36,1.36,0,0,1,3.67,5.2Zm0-1.84a.49.49,0,1,0,.49.49A.49.49,0,0,0,3.67,3.36Z"/><path d="M14.27,7l-.13,0L11.35,6.1a.44.44,0,0,1-.29-.41V2a.43.43,0,0,1,.29-.41L14.14.68a.45.45,0,0,1,.39.06.44.44,0,0,1,.18.35V6.61a.44.44,0,0,1-.18.35A.5.5,0,0,1,14.27,7ZM11.92,5.38,13.84,6V1.69l-1.92.63Z"/><path d="M5.54,12.56A1.57,1.57,0,0,1,4,11.26L3.28,7.09a.42.42,0,0,1,.42-.5A7,7,0,0,0,5,6.4l.89-.16a.48.48,0,0,1,.33.07.46.46,0,0,1,.17.28l.72,4.14a1.58,1.58,0,0,1-1.55,1.83ZM4.21,7.41l.64,3.7a.7.7,0,0,0,1.23.33.68.68,0,0,0,.16-.57L5.6,7.17l-.47.08-.92.16Z"/><path d="M8,14.85a2.71,2.71,0,0,1-2.73-2.74.43.43,0,0,1,.86,0,1.89,1.89,0,0,0,.55,1.34A1.87,1.87,0,0,0,8,14h0A1.89,1.89,0,0,0,9.91,12.1V10.63a1.47,1.47,0,1,1,2.93,0v3.79a.43.43,0,0,1-.43.43.43.43,0,0,1-.43-.43V10.63a.61.61,0,0,0-1.21,0V12.1a2.75,2.75,0,0,1-2.71,2.75Z"/></svg>