<?xml version="1.0" standalone="no"?>
<!DOCTYPE svg PUBLIC "-//W3C//DTD SVG 20010904//EN"
 "http://www.w3.org/TR/2001/REC-SVG-20010904/DTD/svg10.dtd">
<svg version="1.0" xmlns="http://www.w3.org/2000/svg"
 width="64.000000pt" height="64.000000pt" viewBox="0 0 64.000000 64.000000"
 preserveAspectRatio="xMidYMid meet">

<g transform="translate(0.000000,64.000000) scale(0.100000,-0.100000)"
fill="#000000" stroke="none">
<path d="M340 601 c-6 -12 -33 -26 -65 -36 -66 -19 -116 -65 -133 -122 -7 -22
-12 -81 -12 -132 0 -54 -4 -91 -10 -91 -6 0 -10 -40 -10 -101 l0 -100 48 3 47
3 3 84 c2 63 -1 93 -14 119 -21 46 -15 189 10 228 20 30 75 65 96 61 28 -5 22
-34 -10 -47 -57 -24 -60 -36 -60 -240 0 -131 4 -190 12 -198 8 -8 47 -12 108
-12 61 0 100 4 108 12 8 8 12 67 12 198 0 204 -3 216 -60 240 -32 13 -35 21
-20 50 10 18 30 17 98 -4 35 -11 26 11 -10 24 l-33 13 43 10 c35 8 42 14 42
33 0 23 -2 24 -90 24 -78 0 -91 -2 -100 -19z m164 -10 c-5 -4 -30 -14 -56 -21
-43 -11 -48 -11 -69 9 l-23 21 79 0 c44 0 75 -4 69 -9z m-129 -46 c0 -22 -31
-33 -47 -17 -17 17 -1 44 24 40 15 -2 23 -10 23 -23z m-75 -5 c0 -5 -8 -10
-17 -10 -31 0 -79 -36 -96 -73 -12 -24 -17 -61 -17 -116 0 -52 -4 -81 -11 -81
-7 0 -10 30 -7 94 3 104 15 131 78 174 34 23 70 29 70 12z m70 -50 c0 -5 -9
-10 -20 -10 -11 0 -20 5 -20 10 0 6 9 10 20 10 11 0 20 -4 20 -10z m54 -51
l26 -20 0 -190 0 -189 -100 0 -100 0 0 189 0 190 26 20 c19 15 41 21 74 21 33
0 55 -6 74 -21z m-254 -209 c0 -5 -7 -10 -16 -10 -8 0 -12 5 -9 10 3 6 10 10
16 10 5 0 9 -4 9 -10z m20 -110 l0 -80 -30 0 -30 0 0 80 0 80 30 0 30 0 0 -80z"/>
<path d="M270 250 l0 -90 80 0 80 0 0 90 0 90 -80 0 -80 0 0 -90z m150 0 l0
-70 -70 0 -70 0 0 70 0 70 70 0 70 0 0 -70z"/>
</g>
</svg>
