<svg id="Layer_1" data-name="Layer 1" xmlns="http://www.w3.org/2000/svg" viewBox="0 0 15 15"><path d="M14.13,3.4H11.32V1.94a.88.88,0,0,0-.88-.88H4.58a.88.88,0,0,0-.88.88V3.4H.89A.88.88,0,0,0,0,4.28v8.2a.87.87,0,0,0,.88.88H14.13a.87.87,0,0,0,.88-.88V4.28A.88.88,0,0,0,14.13,3.4ZM11.32,4h.88v.88a.29.29,0,0,1-.3.29h-.29a.29.29,0,0,1-.29-.29ZM4.58,1.64h5.86a.3.3,0,0,1,.29.3V3.4h-.58V2.52a.29.29,0,0,0-.3-.29H5.17a.29.29,0,0,0-.3.29V3.4H4.29V1.94A.3.3,0,0,1,4.58,1.64Zm5,2.05a.29.29,0,0,1-.29.3H5.75a.29.29,0,0,1-.29-.3V2.82h4.1ZM3.7,4v.88a.29.29,0,0,1-.29.29h-.3a.29.29,0,0,1-.29-.29V4ZM.89,4H2.24v.88a.88.88,0,0,0,.87.88h.3a.89.89,0,0,0,.88-.88V4h.63a.88.88,0,0,0,.83.58H9.27A.88.88,0,0,0,10.1,4h.63v.88a.89.89,0,0,0,.88.88h.29a.88.88,0,0,0,.88-.88V4h1.35a.29.29,0,0,1,.29.29V11.6H.6V4.28A.29.29,0,0,1,.89,4Zm13.53,8.49a.29.29,0,0,1-.29.3H.89a.29.29,0,0,1-.29-.3v-.29H14.42Z"/><path d="M6.85,9.85H8.17V8.75h1.1V7.43H8.17V6.33H6.85v1.1H5.75V8.75h1.1Z"/></svg>