<?xml version="1.0" standalone="no"?>
<!DOCTYPE svg PUBLIC "-//W3C//DTD SVG 20010904//EN"
 "http://www.w3.org/TR/2001/REC-SVG-20010904/DTD/svg10.dtd">
<svg version="1.0" xmlns="http://www.w3.org/2000/svg"
 width="64.000000pt" height="64.000000pt" viewBox="0 0 64.000000 64.000000"
 preserveAspectRatio="xMidYMid meet">

<g transform="translate(0.000000,64.000000) scale(0.100000,-0.100000)"
fill="#000000" stroke="none">
<path d="M278 536 c-23 -17 -40 -63 -28 -71 6 -4 14 5 20 19 14 38 46 51 76
31 35 -22 32 -61 -6 -83 -23 -13 -30 -24 -30 -47 -1 -28 -13 -38 -153 -130
-150 -99 -171 -121 -147 -150 18 -22 602 -22 620 0 24 29 3 51 -147 150 -118
78 -152 105 -153 122 0 13 8 24 21 28 11 4 27 21 34 38 22 52 -11 106 -65 106
-14 0 -33 -5 -42 -13z m197 -302 c123 -80 144 -98 134 -110 -18 -22 -572 -16
-576 6 -3 15 258 198 284 199 6 1 78 -42 158 -95z"/>
</g>
</svg>
