<svg id="Layer_1" data-name="Layer 1" xmlns="http://www.w3.org/2000/svg" viewBox="0 0 15 15"><path d="M6.05,13.52h-1a.25.25,0,0,0-.25.25v1a.25.25,0,0,0,.25.25h1a.25.25,0,0,0,.25-.25v-1A.25.25,0,0,0,6.05,13.52Zm-.25,1H5.3V14h.5Z"/><path d="M6.3,12.52H4.8a.25.25,0,0,0-.25.25v1A.25.25,0,0,0,4.8,14H6.3a.25.25,0,0,0,.25-.25v-1A.25.25,0,0,0,6.3,12.52Zm-.25,1h-1V13h1Z"/><path d="M10.8,0H4.3A1.25,1.25,0,0,0,3.05,1.27v10.5A1.25,1.25,0,0,0,4.3,13h6.5a1.25,1.25,0,0,0,1.25-1.25V1.27A1.25,1.25,0,0,0,10.8,0Zm.75,11.75a.76.76,0,0,1-.75.75H4.3a.76.76,0,0,1-.75-.75V1.27A.76.76,0,0,1,4.3.52h6.5a.76.76,0,0,1,.75.75v10.5Z"/><path d="M10.05,13.52h-1a.25.25,0,0,0-.25.25v1a.25.25,0,0,0,.25.25h1a.25.25,0,0,0,.25-.25v-1A.25.25,0,0,0,10.05,13.52Zm-.25,1H9.3V14h.5Z"/><path d="M10.3,12.52H8.8a.25.25,0,0,0-.25.25v1A.25.25,0,0,0,8.8,14h1.5a.25.25,0,0,0,.25-.25v-1A.25.25,0,0,0,10.3,12.52Zm-.25,1h-1V13h1Z"/><path d="M7.55,2.27a1,1,0,1,0,1,1A1,1,0,0,0,7.55,2.27Zm0,1.5a.5.5,0,1,1,.5-.5A.5.5,0,0,1,7.55,3.77Z"/><path d="M7.55,3.27a.25.25,0,0,0-.25.25V4a.25.25,0,0,0,.5,0v-.5A.25.25,0,0,0,7.55,3.27Z"/><path d="M8.8,8H6.3a.76.76,0,0,0-.75.75v.75a.76.76,0,0,0,.75.75H8.8a.76.76,0,0,0,.75-.75V8.77A.76.76,0,0,0,8.8,8Zm.25,1.5a.25.25,0,0,1-.25.25H6.3a.25.25,0,0,1-.25-.25V8.77a.25.25,0,0,1,.25-.25H8.8a.25.25,0,0,1,.25.25Z"/><path d="M8.48,9.09a.27.27,0,0,0-.36,0l-.75.75a.25.25,0,0,0,0,.36.27.27,0,0,0,.36,0l.75-.75A.27.27,0,0,0,8.48,9.09Z"/><path d="M11.8,1.27H3.3a.25.25,0,0,0-.25.25v9.75a.25.25,0,0,0,.25.25h8.5a.25.25,0,0,0,.25-.25V1.52A.25.25,0,0,0,11.8,1.27ZM11.55,11h-8V1.77h8V11Z"/></svg>