<?xml version="1.0" standalone="no"?>
<!DOCTYPE svg PUBLIC "-//W3C//DTD SVG 20010904//EN"
 "http://www.w3.org/TR/2001/REC-SVG-20010904/DTD/svg10.dtd">
<svg version="1.0" xmlns="http://www.w3.org/2000/svg"
 width="64.000000pt" height="64.000000pt" viewBox="0 0 64.000000 64.000000"
 preserveAspectRatio="xMidYMid meet">

<g transform="translate(0.000000,64.000000) scale(0.100000,-0.100000)"
fill="#000000" stroke="none">
<path d="M32 549 c-16 -31 -18 -47 -11 -67 15 -40 36 -64 53 -60 14 3 14 8 -5
42 l-21 39 21 38 c26 45 26 49 2 49 -12 0 -26 -15 -39 -41z"/>
<path d="M132 549 c-16 -31 -18 -47 -11 -67 15 -40 36 -64 53 -60 14 3 14 8
-5 42 l-21 39 21 38 c26 45 26 49 2 49 -12 0 -26 -15 -39 -41z"/>
<path d="M476 563 c-11 -15 -20 -41 -20 -58 0 -35 30 -85 50 -85 19 0 18 34
-1 50 -19 16 -19 41 0 66 18 24 19 54 3 54 -7 0 -22 -13 -32 -27z"/>
<path d="M576 563 c-11 -15 -20 -41 -20 -58 0 -35 30 -85 50 -85 19 0 18 34
-1 50 -19 16 -19 41 0 66 18 24 19 54 3 54 -7 0 -22 -13 -32 -27z"/>
<path d="M260 503 c-30 -25 -32 -30 -28 -75 l5 -48 -49 0 c-42 0 -54 -5 -85
-35 -19 -19 -44 -37 -54 -40 -29 -10 -49 -58 -49 -119 0 -131 11 -136 320
-136 309 0 320 5 320 136 0 61 -20 109 -49 119 -10 3 -35 21 -54 40 -31 30
-43 35 -85 35 l-49 0 5 48 c4 45 2 50 -28 75 -41 35 -79 35 -120 0z m106 -42
c23 -45 -17 -91 -65 -76 -33 10 -43 63 -18 93 17 21 70 10 83 -17z m145 -137
c7 -9 13 -37 13 -62 1 -36 -3 -47 -16 -50 -15 -3 -18 4 -18 41 0 50 -9 57 -66
57 l-34 0 0 -75 c0 -68 2 -75 20 -75 18 0 20 7 20 55 0 30 5 55 10 55 6 0 10
-13 10 -30 0 -33 30 -70 57 -70 28 0 53 31 53 67 0 18 4 33 8 33 22 0 32 -29
32 -92 0 -56 -3 -69 -19 -78 -26 -14 -496 -14 -522 0 -16 9 -19 22 -19 78 0
63 10 92 32 92 4 0 8 -14 8 -32 0 -36 24 -68 52 -68 28 0 58 36 58 70 0 17 5
30 10 30 6 0 10 -25 10 -55 0 -48 2 -55 20 -55 18 0 20 7 20 75 l0 75 -34 0
c-57 0 -66 -7 -66 -57 0 -37 -3 -44 -17 -41 -14 3 -18 14 -17 50 1 78 2 78
204 78 150 0 180 -2 191 -16z"/>
</g>
</svg>
