<?xml version="1.0" encoding="iso-8859-1"?>
<!-- Generator: Adobe Illustrator 19.0.0, SVG Export Plug-In . SVG Version: 6.00 Build 0)  -->
<svg version="1.1" id="Layer_1" xmlns="http://www.w3.org/2000/svg" xmlns:xlink="http://www.w3.org/1999/xlink" x="0px" y="0px"
	 viewBox="0 0 512 512" style="enable-background:new 0 0 512 512;" xml:space="preserve">
<g>
	<g>
		<g>
			<path d="M381.207,159.189l-6.272-17.067c-1.613-4.42-6.528-6.699-10.948-5.06c-4.42,1.613-6.69,6.519-5.06,10.948l6.263,17.067
				c1.263,3.456,4.531,5.589,8.004,5.589c0.981,0,1.98-0.171,2.944-0.529C380.567,168.525,382.828,163.618,381.207,159.189z"/>
			<path d="M238.93,281.6c0,62.285,11.486,93.867,34.133,93.867s34.133-31.582,34.133-93.867s-11.486-93.867-34.133-93.867
				S238.93,219.315,238.93,281.6z M290.13,281.6c0,55.953-10.47,76.8-17.067,76.8c-6.596,0-17.067-20.847-17.067-76.8
				s10.47-76.8,17.067-76.8C279.66,204.8,290.13,225.647,290.13,281.6z"/>
			<path d="M441.034,178.765c4.506,1.493,9.293-0.93,10.786-5.402l25.6-76.8c0.879-2.603,0.435-5.461-1.161-7.68
				c-1.613-2.236-4.19-3.55-6.929-3.55h-80.12C360.385,28.757,324.212,0,281.597,0c-47.556,0-87.68,28.757-119.373,85.333H98.13
				c-3.388,0-6.46,2.005-7.817,5.112C56.155,168.533,40.59,253.431,34.352,297.097c-1.792,12.518,7.731,24.602,21.231,26.923
				c11.964,2.065,25.788-4.565,29.713-24.03c1.536-7.603,3.063-15.761,4.685-24.431c7.202-38.417,16.094-85.905,35.43-139.034
				l9.916-0.008c1.109,0,2.176-0.009,3.183-0.009C99.376,238.839,85.33,378.377,85.33,469.333v34.133
				c0,4.71,3.823,8.533,8.533,8.533h358.4c4.719,0,8.533-3.823,8.533-8.533v-34.133c0-96.64-14.754-245.769-56.363-348.015
				c-1.766-4.369-6.767-6.468-11.119-4.693c-4.369,1.775-6.468,6.758-4.685,11.128c40.67,99.968,55.1,246.485,55.1,341.581v25.6
				H102.397v-17.067H418.13c4.719,0,8.533-3.823,8.533-8.533s-3.814-8.533-8.533-8.533H102.448
				c0.853-76.919,13.278-223.01,55.39-326.784c1.408-1.28,1.843-3.226,1.843-6.178c0-4.07-2.876-7.569-6.869-8.371
				c-0.845-0.162-1.681-0.205-2.5-0.119c-2.722,0.085-20.164,0.119-30.848,0.119c-3.558,0-6.741,2.21-7.996,5.538
				C90.194,181.751,80.774,232.021,73.213,272.41c-1.613,8.593-3.132,16.674-4.651,24.209c-0.896,4.446-3.405,11.742-10.086,10.581
				c-3.84-0.657-7.748-4.087-7.236-7.689c5.982-41.847,20.685-122.3,52.506-197.111h353.741l-21.845,65.57
				C434.147,172.442,436.562,177.271,441.034,178.765z M181.962,85.333c27.563-45.269,61.022-68.267,99.635-68.267
				c34.321,0,63.309,22.4,88.354,68.267H181.962z"/>
			<path d="M396.831,299.435c0.401,4.429,4.122,7.765,8.491,7.765c0.256,0,0.521-0.009,0.776-0.034
				c4.693-0.427,8.158-4.574,7.731-9.267c-4.659-51.567-21.026-102.153-21.726-104.277c-1.459-4.48-6.238-6.929-10.76-5.47
				c-4.471,1.468-6.921,6.281-5.453,10.76C376.044,199.415,392.351,249.771,396.831,299.435z"/>
		</g>
	</g>
</g>
<g>
</g>
<g>
</g>
<g>
</g>
<g>
</g>
<g>
</g>
<g>
</g>
<g>
</g>
<g>
</g>
<g>
</g>
<g>
</g>
<g>
</g>
<g>
</g>
<g>
</g>
<g>
</g>
<g>
</g>
</svg>
