<?xml version="1.0" standalone="no"?>
<!DOCTYPE svg PUBLIC "-//W3C//DTD SVG 20010904//EN"
 "http://www.w3.org/TR/2001/REC-SVG-20010904/DTD/svg10.dtd">
<svg version="1.0" xmlns="http://www.w3.org/2000/svg"
 width="32.000000pt" height="32.000000pt" viewBox="0 0 32.000000 32.000000"
 preserveAspectRatio="xMidYMid meet">

<g transform="translate(0.000000,32.000000) scale(0.100000,-0.100000)"
fill="#000000" stroke="none">
<path d="M82 268 c-17 -17 -15 -38 6 -61 14 -17 15 -21 3 -25 -28 -10 -61 -51
-61 -77 0 -14 11 -37 25 -51 22 -22 32 -25 93 -22 60 3 67 5 70 24 2 15 12 24
32 27 52 11 52 83 -1 94 -30 6 -41 23 -14 23 8 0 15 2 15 5 0 11 -34 75 -40
75 -6 0 -40 -64 -40 -75 0 -3 7 -5 15 -5 8 0 15 -4 15 -10 0 -5 -18 -10 -40
-10 -42 0 -50 9 -25 30 28 23 11 70 -25 70 -9 0 -21 -5 -28 -12z m44 -19 c10
-17 -13 -36 -27 -22 -12 12 -4 33 11 33 5 0 12 -5 16 -11z m94 -19 c0 -5 -4
-10 -10 -10 -5 0 -10 5 -10 10 0 6 5 10 10 10 6 0 10 -4 10 -10z m45 -100 c0
-20 -6 -26 -30 -30 -21 -4 -31 -11 -33 -28 -3 -20 -9 -22 -59 -22 -83 0 -119
44 -76 92 14 16 29 18 107 16 90 -3 91 -3 91 -28z"/>
<path d="M150 130 c0 -5 9 -10 20 -10 11 0 20 5 20 10 0 6 -9 10 -20 10 -11 0
-20 -4 -20 -10z"/>
<path d="M90 90 c0 -5 9 -10 20 -10 11 0 20 5 20 10 0 6 -9 10 -20 10 -11 0
-20 -4 -20 -10z"/>
</g>
</svg>
