<svg id="Layer_1" data-name="Layer 1" xmlns="http://www.w3.org/2000/svg" viewBox="0 0 15 15"><path d="M14.21,2.09l.22-.91A.23.23,0,0,0,14.37,1L13.9.49a.24.24,0,0,0-.33,0h0l-.3.31L13,.49a.24.24,0,0,0-.33,0h0L12.33.8,12,.49a.24.24,0,0,0-.33,0h0L11.39.8l-.3-.31a.24.24,0,0,0-.33,0h0l-.3.31L10.15.49a.24.24,0,0,0-.33,0h0L9.52.8,9.22.49a.24.24,0,0,0-.33,0h0L8.58.8,8.28.49A.24.24,0,0,0,8,.49H8L7.48,1a.23.23,0,0,0-.06.22l.22.91V13l-.22.67a.24.24,0,0,0,.06.24l.47.47a.24.24,0,0,0,.33,0h0l.3-.3.31.3a.24.24,0,0,0,.33,0h0l.3-.3.3.3a.24.24,0,0,0,.33,0h0l.31-.3.3.3a.24.24,0,0,0,.33,0h0l.3-.3.31.3a.24.24,0,0,0,.33,0h0l.3-.3.31.3a.24.24,0,0,0,.33,0h0l.3-.3.3.3a.24.24,0,0,0,.33,0h0l.47-.47a.22.22,0,0,0,.06-.24L14.21,13Zm-.47,10.52H11.63V10.79c1.22.19,2.11.84,2.11,1.59Zm-3.17-2.9a.77.77,0,0,1-.31-.38h1.33a.77.77,0,0,1-.31.38.21.21,0,0,0-.12.2v2.7h-.47V9.91A.21.21,0,0,0,10.57,9.71Zm1.06-.85h-.47V7.92h.47Zm.47-1.64A.23.23,0,0,1,12.33,7a.23.23,0,0,1,.24.23.24.24,0,0,1-.24.24A.23.23,0,0,1,12.1,7.22Zm-.43.24H9.42L9.64,7h2A.75.75,0,0,0,11.67,7.46Zm-1,.46v.94h-.47V7.92ZM8.11,2.3H9.75V3a.78.78,0,0,0-.46.67.78.78,0,0,0,.46.66V5.82a.24.24,0,0,0,.24.23.17.17,0,0,0,.1,0l.84-.41.83.41a.22.22,0,0,0,.31-.1.19.19,0,0,0,0-.1V4.37a.79.79,0,0,0,.47-.66A.8.8,0,0,0,12.1,3V2.3a.24.24,0,0,0,0-.47h-4L7.9,1.2,8.11,1l.31.3a.22.22,0,0,0,.33,0h0l.3-.3.3.3a.23.23,0,0,0,.34,0h0L10,1l.3.3a.22.22,0,0,0,.33,0h0l.31-.3.3.3a.22.22,0,0,0,.33,0h0l.3-.3.31.3a.22.22,0,0,0,.33,0h0l.3-.3.3.3a.23.23,0,0,0,.34,0h0l.3-.3L14,1.2l-.16.63H13a.24.24,0,1,0,0,.47h.7v9a3.53,3.53,0,0,0-2.11-1V10a1.17,1.17,0,0,0,.47-.93V7.92h.23a.7.7,0,1,0,0-1.4H9.49a.22.22,0,0,0-.21.13l-.44.94A.22.22,0,0,0,9,7.9a.18.18,0,0,0,.1,0h.7V9.1a1.2,1.2,0,0,0,.47.93v.29a3.59,3.59,0,0,0-2.11,1Zm2.11,2.26a3.05,3.05,0,0,0,1.41,0v.88l-.6-.3a.2.2,0,0,0-.21,0l-.6.3Zm.71-.39c-.72,0-1.18-.27-1.18-.46s.46-.47,1.18-.47,1.17.27,1.17.47S11.64,4.17,10.93,4.17Zm.7-1.32a3.05,3.05,0,0,0-1.41,0V2.3h1.41Zm2.11,11.07-.3-.3a.25.25,0,0,0-.34,0h0l-.3.3-.3-.3a.24.24,0,0,0-.33,0h0l-.31.3-.3-.3a.24.24,0,0,0-.33,0h0l-.3.3-.31-.3a.24.24,0,0,0-.33,0h0l-.3.3-.3-.3a.25.25,0,0,0-.34,0h0l-.3.3-.3-.3a.24.24,0,0,0-.33,0h0l-.31.3-.2-.2.19-.56a.22.22,0,0,0,0-.08h.71a.23.23,0,0,0,.23-.23.23.23,0,0,0-.23-.24H8.11v-.23c0-.75.89-1.4,2.11-1.59v1.82H9.75a.23.23,0,0,0-.23.24.23.23,0,0,0,.23.23h4a.22.22,0,0,0,0,.08l.19.56Z"/><path d="M6.94,2.09l.23-.91A.23.23,0,0,0,7.11,1L6.64.49a.24.24,0,0,0-.33,0h0L6,.8,5.7.49a.24.24,0,0,0-.33,0h0L5.07.8,4.76.49a.24.24,0,0,0-.33,0h0L4.13.8,3.83.49a.25.25,0,0,0-.34,0h0L3.19.8,2.89.49a.24.24,0,0,0-.33,0h0L2.25.8,2,.49a.24.24,0,0,0-.33,0h0L1.32.8,1,.49a.24.24,0,0,0-.33,0h0L.21,1a.25.25,0,0,0-.06.22l.23.91V13l-.22.67a.23.23,0,0,0,0,.24l.47.47a.24.24,0,0,0,.33,0H1l.31-.3.3.3a.24.24,0,0,0,.33,0H2l.3-.3.31.3a.24.24,0,0,0,.33,0h0l.3-.3.3.3a.25.25,0,0,0,.34,0h0l.3-.3.3.3a.24.24,0,0,0,.33,0h0l.31-.3.3.3a.24.24,0,0,0,.33,0h0l.3-.3.31.3a.24.24,0,0,0,.33,0h0L7.11,14a.23.23,0,0,0,0-.24L6.94,13ZM6.47,13.92l-.3-.3a.24.24,0,0,0-.33,0h0l-.3.3-.31-.3a.24.24,0,0,0-.33,0h0l-.3.3-.31-.3a.24.24,0,0,0-.33,0H4l-.3.3-.3-.3a.24.24,0,0,0-.33,0H3l-.31.3-.3-.3a.24.24,0,0,0-.33,0h0l-.3.3-.31-.3a.24.24,0,0,0-.33,0h0l-.3.3-.2-.2.19-.56s0-.05,0-.08h.7a.23.23,0,0,0,.24-.23.24.24,0,0,0-.24-.24H.85V2.3h4a.24.24,0,1,0,0-.47H.8L.64,1.2.85,1l.3.3a.22.22,0,0,0,.33,0h0L1.79,1l.3.3a.22.22,0,0,0,.33,0h0l.3-.3.31.3a.22.22,0,0,0,.33,0h0l.3-.3.3.3a.22.22,0,0,0,.33,0h0L4.6,1l.3.3a.22.22,0,0,0,.33,0h0L5.54,1l.3.3a.22.22,0,0,0,.33,0h0l.3-.3.21.21-.16.63H5.77a.24.24,0,0,0,0,.47h.7V12.61h-4a.24.24,0,0,0-.24.24.23.23,0,0,0,.24.23h4a.24.24,0,0,0,0,.08l.18.56Z"/><path d="M5.77,11.91V5.82a.24.24,0,0,0-.23-.24H1.79a.24.24,0,0,0-.24.24v6.09a.23.23,0,0,0,.24.23H5.54A.23.23,0,0,0,5.77,11.91ZM4.36,6.05v5.62H3.89V6.05Zm-.93,0v5.62H3V6.05ZM2,6.05h.47v5.62H2ZM5.3,11.67H4.83V6.05H5.3Z"/><path d="M3.66,5.11c1,0,1.88-.51,1.88-1.17S4.71,2.77,3.66,2.77s-1.87.51-1.87,1.17S2.61,5.11,3.66,5.11Zm0-1.87c.83,0,1.41.37,1.41.7s-.58.7-1.41.7-1.41-.37-1.41-.7S2.83,3.24,3.66,3.24Z"/></svg>