<svg id="Layer_1" data-name="Layer 1" xmlns="http://www.w3.org/2000/svg" viewBox="0 0 15 15"><path d="M14.17,9.32h-.71v.47h-.37L12.82,8a.7.7,0,0,0-.69-.59H7.54a.71.71,0,0,0-.7.59L6.58,9.79H6.2V9.32H5.5a.71.71,0,1,0,0,1.41h.7v-.47h.3l0,.28a1.62,1.62,0,0,0-.73,1.36v1.41H6.2v.46a.89.89,0,0,0,.13.47h-2V6.67a3.28,3.28,0,1,0-1.4,0v7.57H1.28v.47H13.93v-.47h-.6a.81.81,0,0,0,.13-.47v-.46h.47V11.9a1.62,1.62,0,0,0-.73-1.36l0-.28h.3v.47h.71a.71.71,0,0,0,0-1.41Zm-8.44.94H5.5a.24.24,0,1,1,0-.47h.23Zm-1.87,4H3.39V7.68h.47Zm0-7H3.39V6.73h.47Zm-.24-.94A2.81,2.81,0,1,1,6.43,3.46,2.81,2.81,0,0,1,3.62,6.27ZM7.31,8.11a.22.22,0,0,1,.23-.19h4.59a.24.24,0,0,1,.23.19l.33,2.2a1.68,1.68,0,0,0-.4-.05H7.37a1.75,1.75,0,0,0-.4.05ZM6.2,12.84v-.71H8.31v.71Zm1.41.93a.47.47,0,1,1-.94,0v-.46h.94Zm.33.47a.89.89,0,0,0,.13-.47v-.46h3.52v.46a.89.89,0,0,0,.13.47Zm.84-1.4V11.9A.23.23,0,0,1,9,11.67h1.64a.23.23,0,0,1,.24.23v.94Zm4.22.93a.47.47,0,0,1-.94,0v-.46H13Zm.46-.93h-2.1v-.71h2.1Zm0-1.17H11.31a.68.68,0,0,0-.66-.47H9a.7.7,0,0,0-.66.47H6.22a1.18,1.18,0,0,1,1.15-.94h4.92A1.17,1.17,0,0,1,13.44,11.67Zm.73-1.41h-.24V9.79h.24a.24.24,0,0,1,0,.47Z"/><path d="M4.09,1.82H2.68V4.87h.47V3.7h.94a.94.94,0,0,0,0-1.88Zm0,1.41H3.15V2.29h.94a.47.47,0,0,1,0,.94Z"/><rect x="7.84" y="9.32" width="3.05" height="0.47"/><rect x="11.36" y="9.32" width="0.47" height="0.47"/><rect x="14.4" y="14.24" width="0.47" height="0.47"/><rect x="0.34" y="14.24" width="0.47" height="0.47"/></svg>