<?xml version="1.0" standalone="no"?>
<!DOCTYPE svg PUBLIC "-//W3C//DTD SVG 20010904//EN"
 "http://www.w3.org/TR/2001/REC-SVG-20010904/DTD/svg10.dtd">
<svg version="1.0" xmlns="http://www.w3.org/2000/svg"
 width="64.000000pt" height="64.000000pt" viewBox="0 0 64.000000 64.000000"
 preserveAspectRatio="xMidYMid meet">

<g transform="translate(0.000000,64.000000) scale(0.100000,-0.100000)"
fill="#000000" stroke="none">
<path d="M435 605 c-14 -13 -25 -31 -25 -40 0 -9 -7 -23 -15 -31 -18 -18 -20
-55 -3 -72 8 -8 47 -12 110 -12 87 0 99 2 118 22 11 12 20 32 20 44 0 26 -36
74 -56 74 -8 0 -24 9 -36 20 -31 28 -83 26 -113 -5z m109 -14 c10 -11 28 -22
42 -25 25 -7 41 -44 30 -71 -3 -8 -17 -20 -31 -25 -34 -13 -141 -13 -166 0
-23 13 -25 48 -4 56 8 4 15 15 15 27 0 52 78 78 114 38z"/>
<path d="M87 522 c-48 -48 -87 -92 -87 -98 0 -7 7 -17 15 -24 12 -10 15 -45
15 -195 0 -166 -2 -184 -17 -188 -10 -3 127 -5 305 -6 l322 -1 0 30 c0 29 -2
30 -44 30 -55 0 -67 11 -110 104 -37 81 -64 106 -113 106 l-33 0 0 55 c0 40 4
57 15 61 27 11 16 49 -25 89 -50 49 -66 37 -17 -13 35 -35 47 -62 29 -62 -4 0
-39 32 -77 70 -38 39 -74 70 -80 70 -6 0 -42 -31 -80 -70 -70 -71 -85 -81 -85
-57 0 15 151 167 166 167 6 0 23 -13 39 -30 15 -16 32 -27 37 -24 13 8 -52 74
-72 74 -8 0 -55 -39 -103 -88z m233 -204 l0 -78 -35 0 c-33 0 -35 2 -35 35 0
40 -28 75 -60 75 -31 0 -70 -44 -70 -80 0 -28 -3 -30 -35 -30 l-35 0 0 77 0
77 67 68 67 68 68 -67 68 -67 0 -78z m-102 0 c7 -7 12 -27 12 -45 0 -32 -1
-33 -45 -33 -43 0 -45 1 -45 29 0 49 48 79 78 49z m205 -76 c11 -9 33 -46 50
-82 40 -89 51 -100 104 -100 37 0 43 -3 43 -21 0 -20 -4 -21 -47 -15 -60 8
-84 31 -131 127 -31 63 -42 75 -69 83 -19 5 -33 15 -33 24 0 19 56 9 83 -16z
m-348 -120 c0 -124 -19 -121 -23 4 -2 75 0 95 10 92 9 -3 13 -30 13 -96z m65
-3 c0 -98 0 -100 -22 -97 -22 3 -23 9 -26 87 -3 98 0 111 28 111 19 0 20 -6
20 -101z m70 81 c0 -15 -7 -20 -25 -20 -18 0 -25 5 -25 20 0 15 7 20 25 20 18
0 25 -5 25 -20z m68 -77 c-3 -90 -5 -98 -23 -98 -18 0 -20 8 -23 84 -3 98 0
111 28 111 20 0 21 -5 18 -97z m42 47 c0 -27 5 -50 10 -50 6 0 10 23 10 50 0
42 3 50 18 50 26 0 46 -25 80 -101 17 -37 35 -70 41 -73 27 -17 5 -26 -64 -26
l-75 0 0 35 c0 19 -4 35 -10 35 -5 0 -10 -16 -10 -35 0 -19 -4 -35 -10 -35 -6
0 -10 40 -10 100 0 60 4 100 10 100 6 0 10 -22 10 -50z m-110 -25 c0 -9 -9
-15 -25 -15 -16 0 -25 6 -25 15 0 9 9 15 25 15 16 0 25 -6 25 -15z m0 -55 c0
-15 -7 -20 -25 -20 -18 0 -25 5 -25 20 0 15 7 20 25 20 18 0 25 -5 25 -20z m0
-55 c0 -9 -9 -15 -25 -15 -16 0 -25 6 -25 15 0 9 9 15 25 15 16 0 25 -6 25
-15z"/>
<path d="M160 446 c-19 -23 -8 -61 18 -64 44 -7 67 32 36 62 -19 20 -38 20
-54 2z m46 -17 c9 -15 -11 -33 -30 -26 -9 4 -13 13 -10 22 7 17 30 20 40 4z"/>
</g>
</svg>
