<svg id="Layer_1" data-name="Layer 1" xmlns="http://www.w3.org/2000/svg" viewBox="0 0 15 15"><path d="M.8,11.2c5.43-1.54,7.41,1.58,13.44,0a.42.42,0,1,0-.21-.81,12.31,12.31,0,0,1-3.14.43l-1.21-2A1.88,1.88,0,0,0,12.51,9,1.84,1.84,0,0,0,13,7.63a1.87,1.87,0,1,0-3.57.84L7.78,5.8l2.46-.71a1.24,1.24,0,1,0-.69-2.38L5.82,3.78A1.52,1.52,0,0,0,5,6L6.08,7.86,2.66,10a13,13,0,0,0-2.09.41.43.43,0,0,0-.29.52.43.43,0,0,0,.52.29ZM10.38,7a1,1,0,1,1,0,1.47A1,1,0,0,1,10.38,7ZM7,7.77,5.66,5.6a.68.68,0,0,1,.39-1L9.78,3.51a.42.42,0,0,1,.47.19.41.41,0,0,1-.24.58L7,5.15a.42.42,0,0,0-.24.62l3.11,5c-2-.16-3.54-.75-5.55-.84L6.88,8.35A.43.43,0,0,0,7,7.77Z"/><path d="M14,12.35c-5.77,1.5-7.79-1.61-13.46,0a.42.42,0,0,0-.29.51.41.41,0,0,0,.52.29c5.43-1.54,7.41,1.58,13.44,0a.44.44,0,0,0,.3-.52.42.42,0,0,0-.51-.29Z"/></svg>