<?xml version="1.0" standalone="no"?>
<!DOCTYPE svg PUBLIC "-//W3C//DTD SVG 20010904//EN"
 "http://www.w3.org/TR/2001/REC-SVG-20010904/DTD/svg10.dtd">
<svg version="1.0" xmlns="http://www.w3.org/2000/svg"
 width="64.000000pt" height="64.000000pt" viewBox="0 0 64.000000 64.000000"
 preserveAspectRatio="xMidYMid meet">

<g transform="translate(0.000000,64.000000) scale(0.100000,-0.100000)"
fill="#000000" stroke="none">
<path d="M232 609 c-15 -6 -22 -15 -20 -26 3 -14 12 -17 41 -15 28 3 37 0 37
-12 0 -9 -7 -16 -16 -16 -13 0 -15 -8 -12 -42 4 -38 1 -46 -26 -69 l-31 -27
-3 -175 c-4 -214 -8 -207 118 -207 126 0 122 -7 118 207 l-3 175 -31 27 c-27
23 -30 31 -26 69 3 34 1 42 -12 42 -13 0 -15 7 -10 38 l6 37 -54 2 c-29 1 -63
-3 -76 -8z m113 -14 c-24 -8 -114 -11 -109 -3 3 4 31 8 62 7 31 0 53 -2 47 -4z
m-14 -40 c-1 -15 -24 -12 -29 3 -3 9 2 13 12 10 10 -1 17 -7 17 -13z m29 -52
c0 -20 -5 -23 -40 -23 -35 0 -40 3 -40 23 0 20 5 22 40 22 35 0 40 -2 40 -22z
m-22 -50 c-10 -2 -26 -2 -35 0 -10 3 -2 5 17 5 19 0 27 -2 18 -5z m65 -45 c13
-15 17 -38 17 -94 l0 -74 -100 0 -100 0 0 73 c0 82 15 113 58 120 48 8 106 -4
125 -25z m17 -223 l0 -45 -100 0 -100 0 0 45 0 45 100 0 100 0 0 -45z m0 -100
l0 -45 -100 0 -100 0 0 45 0 45 100 0 100 0 0 -45z"/>
</g>
</svg>
