<?xml version="1.0" standalone="no"?>
<!DOCTYPE svg PUBLIC "-//W3C//DTD SVG 20010904//EN"
 "http://www.w3.org/TR/2001/REC-SVG-20010904/DTD/svg10.dtd">
<svg version="1.0" xmlns="http://www.w3.org/2000/svg"
 width="64.000000pt" height="64.000000pt" viewBox="0 0 64.000000 64.000000"
 preserveAspectRatio="xMidYMid meet">

<g transform="translate(0.000000,64.000000) scale(0.100000,-0.100000)"
fill="#000000" stroke="none">
<path d="M220 624 c-227 -82 -293 -362 -125 -529 65 -65 125 -89 225 -89 100
0 160 24 225 89 65 65 89 125 89 225 0 100 -24 160 -89 225 -82 82 -222 116
-325 79z m225 -52 c47 -24 105 -83 131 -132 26 -49 26 -191 0 -240 -25 -49
-84 -108 -131 -133 -57 -31 -193 -31 -250 0 -47 25 -106 84 -131 133 -26 49
-26 191 0 240 36 69 105 128 176 151 44 15 162 4 205 -19z"/>
<path d="M154 486 c-30 -31 -54 -64 -54 -75 0 -33 24 -25 51 16 13 21 41 49
62 62 41 27 49 51 16 51 -11 0 -44 -24 -75 -54z"/>
<path d="M390 527 c0 -8 17 -25 37 -38 21 -13 49 -41 62 -62 27 -41 51 -49 51
-16 0 11 -24 44 -54 75 -52 51 -96 70 -96 41z"/>
<path d="M210 430 c-22 -22 -40 -47 -40 -55 0 -22 38 -18 45 5 3 11 19 27 36
37 30 18 40 53 14 53 -8 0 -33 -18 -55 -40z"/>
<path d="M360 452 c0 -11 11 -24 25 -30 14 -7 30 -23 37 -37 12 -27 48 -35 48
-10 0 8 -18 33 -40 55 -43 43 -70 51 -70 22z"/>
<path d="M283 388 c-55 -27 -50 -114 8 -138 89 -37 151 99 63 139 -30 13 -42
13 -71 -1z m67 -43 c26 -32 -13 -81 -47 -59 -23 14 -28 41 -13 59 16 19 44 19
60 0z"/>
<path d="M170 265 c0 -8 18 -33 40 -55 22 -22 47 -40 55 -40 26 0 16 35 -14
53 -17 10 -33 26 -36 37 -7 23 -45 27 -45 5z"/>
<path d="M422 255 c-7 -14 -23 -30 -37 -37 -27 -12 -35 -48 -10 -48 8 0 33 18
55 40 22 22 40 47 40 55 0 25 -36 17 -48 -10z"/>
<path d="M100 229 c0 -27 102 -129 129 -129 33 0 25 24 -16 51 -21 13 -49 41
-62 62 -27 41 -51 49 -51 16z"/>
<path d="M489 213 c-13 -21 -41 -49 -62 -62 -41 -27 -49 -51 -16 -51 27 0 129
102 129 129 0 33 -24 25 -51 -16z"/>
</g>
</svg>
