<?xml version="1.0" encoding="iso-8859-1"?>
<!-- Generator: Adobe Illustrator 19.0.0, SVG Export Plug-In . SVG Version: 6.00 Build 0)  -->
<svg version="1.1" id="Layer_1" xmlns="http://www.w3.org/2000/svg" xmlns:xlink="http://www.w3.org/1999/xlink" x="0px" y="0px"
	 viewBox="0 0 512 512" style="enable-background:new 0 0 512 512;" xml:space="preserve">
<g>
	<g>
		<g>
			<path d="M230.656,85.333c4.71,0,8.533-3.823,8.533-8.533s-3.823-8.533-8.533-8.533h-0.094c-4.71,0-8.482,3.823-8.482,8.533
				S225.937,85.333,230.656,85.333z"/>
			<path d="M247.723,136.533c4.71,0,8.533-3.823,8.533-8.533c0-4.71-3.823-8.533-8.533-8.533h-0.094
				c-4.71,0-8.482,3.823-8.482,8.533C239.147,132.71,243.004,136.533,247.723,136.533z"/>
			<path d="M298.923,119.467c4.71,0,8.533-3.823,8.533-8.533s-3.823-8.533-8.533-8.533h-0.094c-4.71,0-8.482,3.823-8.482,8.533
				S294.204,119.467,298.923,119.467z"/>
			<path d="M315.989,153.6h-0.094c-4.702,0-8.482,3.823-8.482,8.533c0,4.71,3.857,8.533,8.576,8.533c4.71,0,8.533-3.823,8.533-8.533
				C324.523,157.423,320.7,153.6,315.989,153.6z"/>
			<path d="M315.989,68.267c4.71,0,8.533-3.823,8.533-8.533S320.7,51.2,315.989,51.2h-0.094c-4.702,0-8.482,3.823-8.482,8.533
				S311.27,68.267,315.989,68.267z"/>
			<path d="M486.4,273.067h-8.533V256c0-41.335-12.407-68.787-37.922-83.908c-2.611-1.92-13.09-8.9-36.386-16.205
				c-4.531-1.434-9.284,1.092-10.692,5.589s1.092,9.284,5.589,10.692c22.69,7.117,31.394,13.679,31.411,13.696
				c0.324,0.265,0.674,0.495,1.033,0.708C451.294,198.468,460.8,220.535,460.8,256v25.6c0,4.71,3.814,8.533,8.533,8.533H486.4
				c4.702,0,8.533,3.831,8.533,8.533v51.2c0,4.702-3.831,8.533-8.533,8.533h-8.533v-42.667c0-4.71-3.823-8.533-8.533-8.533
				c-4.719,0-8.533,3.823-8.533,8.533V435.2c0,14.114-11.486,25.6-25.6,25.6c-4.719,0-8.533,3.823-8.533,8.533v25.6H51.2v-17.067
				h349.867c4.71,0,8.533-3.823,8.533-8.533s-3.823-8.533-8.533-8.533h-358.4c-14.123,0-25.6-11.486-25.6-25.6V256
				c0-35.328,9.515-57.395,29.943-69.453c0.29-0.179,0.649-0.418,0.922-0.631c0.085-0.068,8.755-6.613,31.428-13.722
				c4.489-1.408,6.989-6.195,5.581-10.692s-6.195-7.014-10.701-5.589c-23.313,7.313-33.766,14.293-36.343,16.196
				C12.399,187.383,0,214.835,0,256v179.2c0,20.608,14.677,37.837,34.133,41.805v26.462c0,4.71,3.814,8.533,8.533,8.533H435.2
				c4.71,0,8.533-3.823,8.533-8.533v-26.462c19.448-3.959,34.133-21.197,34.133-41.805v-59.733h8.533
				c14.114,0,25.6-11.486,25.6-25.6v-51.2C512,284.553,500.514,273.067,486.4,273.067z"/>
			<path d="M93.867,187.733c-4.719,0-8.533,3.823-8.533,8.533s3.814,8.533,8.533,8.533H384c4.71,0,8.533-3.823,8.533-8.533
				s-3.823-8.533-8.533-8.533h-8.533V89.165c10.897-9.737,17.067-23.347,17.067-37.965c0-28.237-22.972-51.2-51.2-51.2h-204.8
				c-28.237,0-51.2,22.963-51.2,51.2c0,14.618,6.161,28.228,17.067,37.965v98.569H93.867z M136.533,17.067h204.8
				c18.825,0,34.133,15.309,34.133,34.133c0,10.675-4.983,20.565-13.679,27.136c-2.142,1.613-3.388,4.13-3.388,6.81v102.588H119.467
				V85.146c0-2.68-1.254-5.197-3.396-6.81c-8.687-6.571-13.67-16.461-13.67-27.136C102.4,32.375,117.709,17.067,136.533,17.067z"/>
			<path d="M196.523,170.667c4.71,0,8.533-3.823,8.533-8.533c0-4.71-3.823-8.533-8.533-8.533h-0.094
				c-4.71,0-8.482,3.823-8.482,8.533C187.947,166.844,191.804,170.667,196.523,170.667z"/>
			<path d="M128,273.067c-14.123,0-25.6,11.486-25.6,25.6v68.267c0,14.114,11.477,25.6,25.6,25.6h221.867
				c14.114,0,25.6-11.486,25.6-25.6v-68.267c0-14.114-11.486-25.6-25.6-25.6H128z M358.4,298.667v68.267
				c0,4.702-3.831,8.533-8.533,8.533H128c-4.71,0-8.533-3.831-8.533-8.533v-68.267c0-4.702,3.823-8.533,8.533-8.533h221.867
				C354.569,290.133,358.4,293.965,358.4,298.667z"/>
			<path d="M162.389,119.467c4.71,0,8.533-3.823,8.533-8.533s-3.823-8.533-8.533-8.533h-0.094c-4.702,0-8.482,3.823-8.482,8.533
				S157.67,119.467,162.389,119.467z"/>
			<path d="M179.456,51.2c4.71,0,8.533-3.823,8.533-8.533c0-4.71-3.823-8.533-8.533-8.533h-0.094c-4.702,0-8.482,3.823-8.482,8.533
				C170.88,47.377,174.737,51.2,179.456,51.2z"/>
		</g>
	</g>
</g>
<g>
</g>
<g>
</g>
<g>
</g>
<g>
</g>
<g>
</g>
<g>
</g>
<g>
</g>
<g>
</g>
<g>
</g>
<g>
</g>
<g>
</g>
<g>
</g>
<g>
</g>
<g>
</g>
<g>
</g>
</svg>
