<?xml version="1.0" encoding="iso-8859-1"?>
<!-- Generator: Adobe Illustrator 19.0.0, SVG Export Plug-In . SVG Version: 6.00 Build 0)  -->
<svg version="1.1" id="Layer_1" xmlns="http://www.w3.org/2000/svg" xmlns:xlink="http://www.w3.org/1999/xlink" x="0px" y="0px"
	 viewBox="0 0 511.999 511.999" style="enable-background:new 0 0 511.999 511.999;" xml:space="preserve">
<path style="fill:#1D1D1B;" d="M511.999,135.76c0-16.691-8.598-31.413-21.595-39.969c12.997-8.556,21.595-23.278,21.595-39.969
	c0-26.366-21.45-47.816-47.816-47.816H87.851C39.41,8.007,0,47.417,0,95.858c0,30.448,15.576,57.32,39.173,73.087
	C16.922,173.026,0,192.549,0,215.965c0,16.691,8.598,31.413,21.595,39.969C8.598,264.489,0,279.21,0,295.901
	c0,23.472,17.004,43.032,39.334,47.049C15.649,358.703,0,385.624,0,416.14c0,48.441,39.41,87.852,87.853,87.852l376.33-0.133
	c26.366,0,47.816-21.45,47.816-47.816c0-16.692-8.597-31.414-21.596-39.969c12.999-8.555,21.596-23.277,21.596-39.969
	c0-23.413-16.921-42.938-39.173-47.018c23.596-15.767,39.173-42.64,39.173-73.088c0-30.517-15.649-57.438-39.335-73.192
	C494.996,178.793,511.999,159.231,511.999,135.76z M496.438,376.106c0,17.024-13.178,31.23-29.912,32.396l-362.662-0.141
	c-4.54,0-8.234-3.694-8.234-8.234c0-4.541,3.694-8.235,8.234-8.235v-15.561c-13.12,0-23.794,10.675-23.794,23.795
	s10.675,23.794,23.794,23.794l363.662,0.103c16.418,1.484,28.912,15.222,28.912,32.021c0,17.786-14.469,32.255-32.258,32.255
	l-376.329,0.133c-39.861-0.001-72.29-32.431-72.29-72.292s32.429-72.29,72.29-72.29h376.333
	C481.969,343.851,496.438,358.32,496.438,376.106z M496.438,255.999c0,39.862-32.429,72.291-72.287,72.291l-376.337-0.133
	c-17.785,0-32.254-14.469-32.254-32.256c0-16.795,12.902-30.634,29.316-32.122h363.258c13.12,0,23.795-10.675,23.795-23.795
	s-10.675-23.794-23.795-23.794v15.561c4.541,0,8.235,3.694,8.235,8.234c0,4.541-3.694,8.235-8.235,8.235L45.541,248.14
	c-16.729-1.171-29.98-15.154-29.98-32.175c0-17.787,14.469-32.256,32.255-32.256h376.334
	C464.009,183.709,496.438,216.138,496.438,255.999z M464.18,168.015l-376.329,0.133c-39.861,0-72.29-32.429-72.29-72.29
	s32.429-72.291,72.29-72.291h376.333c17.786,0,32.255,14.469,32.255,32.255c0,17.021-13.251,31.006-29.98,32.177l-362.594,0.079
	c-4.54,0-8.234-3.694-8.234-8.235c0-4.541,3.694-8.235,8.234-8.235V56.048c-13.12,0-23.794,10.675-23.794,23.795
	s10.675,23.795,23.794,23.795h363.258c16.413,1.489,29.316,15.326,29.316,32.122C496.438,153.546,481.969,168.015,464.18,168.015z"
	/>
<g>
</g>
<g>
</g>
<g>
</g>
<g>
</g>
<g>
</g>
<g>
</g>
<g>
</g>
<g>
</g>
<g>
</g>
<g>
</g>
<g>
</g>
<g>
</g>
<g>
</g>
<g>
</g>
<g>
</g>
</svg>
