<svg id="Layer_1" data-name="Layer 1" xmlns="http://www.w3.org/2000/svg" viewBox="0 0 15 15"><path d="M13.89,4.09a.22.22,0,0,0,.22-.22V1.41A1.43,1.43,0,0,0,12.68,0h-10A1.44,1.44,0,0,0,1.23,1.41V13.55A1.44,1.44,0,0,0,2.67,15h10a1.43,1.43,0,0,0,1.43-1.43V4.8a.22.22,0,1,0-.44,0v6.36H11.72a.22.22,0,0,0-.22.22.22.22,0,0,0,.22.22h1.95v1.94h-12V11.6h2a.22.22,0,0,0,.22-.22.22.22,0,0,0-.22-.22h-2v-8H2.76a.22.22,0,1,0,0-.44H1.67V1.41a1,1,0,0,1,1-1h10a1,1,0,0,1,1,1V2.75H3.7a.22.22,0,0,0,0,.44h10v.68a.22.22,0,0,0,.22.22ZM12.68,14.54h-10a1,1,0,0,1-.9-.56H13.58A1,1,0,0,1,12.68,14.54Z"/><path d="M8.41,1.61a.75.75,0,1,0-.75.74A.75.75,0,0,0,8.41,1.61Zm-1.06,0a.31.31,0,1,1,.31.31.31.31,0,0,1-.31-.31Z"/><path d="M6.36,1.61a.75.75,0,1,0-.74.74A.74.74,0,0,0,6.36,1.61Zm-1.05,0a.31.31,0,1,1,.31.31A.31.31,0,0,1,5.31,1.61Z"/><path d="M4.32,1.61a.75.75,0,1,0-.74.74A.74.74,0,0,0,4.32,1.61Zm-1.05,0a.31.31,0,0,1,.31-.31.31.31,0,0,1,0,.62A.31.31,0,0,1,3.27,1.61Z"/><path d="M10.45,1.61a.75.75,0,1,0-.75.74A.75.75,0,0,0,10.45,1.61Zm-1.06,0a.31.31,0,1,1,.31.31A.31.31,0,0,1,9.39,1.61Z"/><path d="M12.49,1.61a.75.75,0,1,0-.75.74A.75.75,0,0,0,12.49,1.61Zm-1.06,0a.31.31,0,1,1,.31.31A.31.31,0,0,1,11.43,1.61Z"/><path d="M3.42,8.52a.22.22,0,0,0-.19.25,4.39,4.39,0,1,0,0-1,.22.22,0,0,0,.2.24.21.21,0,0,0,.24-.19,4,4,0,1,1,0,.89.22.22,0,0,0-.24-.2Z"/><path d="M7.52,4.68A3.59,3.59,0,0,0,4.08,8.12a3.59,3.59,0,0,0,3.58,3.72A3.59,3.59,0,0,0,10.8,10a.4.4,0,0,0,0-.32.35.35,0,0,0-.24-.22l-.27-.09a.14.14,0,0,1-.1-.13V7.3a.14.14,0,0,1,.1-.13l.27-.09a.35.35,0,0,0,.24-.22.4.4,0,0,0,0-.32A3.58,3.58,0,0,0,7.52,4.68Zm2.86,5.15A3.16,3.16,0,0,1,7.66,11.4,3.15,3.15,0,0,1,4.54,8.67L5.9,8.11a2.36,2.36,0,0,1,1.79,0l.43.16a2.91,2.91,0,0,0,1.65.12v.85a.58.58,0,0,0,.4.55h0Zm-.21-3.08a.57.57,0,0,0-.4.55v.62a2.45,2.45,0,0,1-1.49-.08l-.43-.16a2.83,2.83,0,0,0-2.12,0l-1.21.5V8.13a3.15,3.15,0,0,1,3-3h.12a3.15,3.15,0,0,1,2.72,1.56Z"/><path d="M10.7,7.65V8.9a.22.22,0,1,0,.44,0V7.65a.22.22,0,0,0-.44,0Z"/><path d="M13.17,4.63V4a.4.4,0,0,0-.4-.4h-1a.4.4,0,0,0-.4.4v.59a.4.4,0,0,0,.4.4h1A.4.4,0,0,0,13.17,4.63Zm-.44,0h-.92V4.08h.92Z"/></svg>