<?xml version="1.0" standalone="no"?>
<!DOCTYPE svg PUBLIC "-//W3C//DTD SVG 20010904//EN"
 "http://www.w3.org/TR/2001/REC-SVG-20010904/DTD/svg10.dtd">
<svg version="1.0" xmlns="http://www.w3.org/2000/svg"
 width="64.000000pt" height="64.000000pt" viewBox="0 0 64.000000 64.000000"
 preserveAspectRatio="xMidYMid meet">

<g transform="translate(0.000000,64.000000) scale(0.100000,-0.100000)"
fill="#000000" stroke="none">
<path d="M199 564 c-92 -28 -211 -116 -195 -143 12 -19 42 -12 70 18 15 16 56
42 89 58 54 24 74 28 157 28 83 0 103 -4 157 -28 33 -16 74 -42 89 -58 28 -30
58 -37 70 -18 9 15 -51 75 -105 104 -96 54 -232 70 -332 39z"/>
<path d="M249 427 c-57 -16 -135 -62 -149 -86 -7 -14 -6 -22 5 -31 11 -9 21
-7 47 13 63 47 100 61 168 61 68 0 105 -14 168 -61 30 -23 35 -24 49 -10 14
14 13 18 -11 42 -62 62 -192 96 -277 72z"/>
<path d="M242 269 c-47 -24 -61 -44 -43 -62 8 -8 22 -5 54 11 55 28 79 28 134
0 33 -16 46 -19 55 -10 26 26 -59 82 -124 82 -18 0 -53 -10 -76 -21z"/>
<path d="M290 125 c-26 -32 13 -81 48 -59 22 14 27 41 12 59 -16 19 -44 19
-60 0z"/>
</g>
</svg>
