<?xml version="1.0" standalone="no"?>
<!DOCTYPE svg PUBLIC "-//W3C//DTD SVG 20010904//EN"
 "http://www.w3.org/TR/2001/REC-SVG-20010904/DTD/svg10.dtd">
<svg version="1.0" xmlns="http://www.w3.org/2000/svg"
 width="64.000000pt" height="64.000000pt" viewBox="0 0 64.000000 64.000000"
 preserveAspectRatio="xMidYMid meet">

<g transform="translate(0.000000,64.000000) scale(0.100000,-0.100000)"
fill="#000000" stroke="none">
<path d="M248 581 c-27 -24 -33 -36 -33 -69 0 -50 33 -89 81 -98 110 -21 158
133 57 185 -36 18 -71 13 -105 -18z m117 -16 c70 -69 -31 -182 -103 -115 -28
27 -37 62 -21 92 28 53 84 64 124 23z"/>
<path d="M190 383 c-40 -15 -91 -98 -103 -168 -3 -16 -8 -46 -12 -66 -6 -29
-3 -40 20 -67 l27 -32 -36 0 c-20 0 -36 -4 -36 -10 0 -6 97 -10 270 -10 173 0
270 4 270 10 0 6 -21 10 -46 10 l-46 0 31 36 c19 21 30 43 27 52 -14 46 -20
79 -18 93 2 9 -4 22 -13 29 -8 7 -15 19 -15 27 0 27 -31 73 -60 88 -21 11 -59
15 -137 14 -59 0 -115 -3 -123 -6z m263 -33 c14 -11 30 -33 35 -50 l11 -30
-185 0 c-101 0 -184 2 -184 4 0 1 5 17 11 35 17 49 49 60 175 61 96 0 115 -3
137 -20z m61 -137 c-3 -21 -12 -65 -18 -98 l-12 -60 -171 -3 -171 -2 -10 47
c-6 27 -14 72 -18 101 l-7 52 207 0 207 0 -7 -37z m-404 -96 c0 -10 -4 -15
-10 -12 -5 3 -10 18 -10 33 0 21 2 24 10 12 5 -8 10 -23 10 -33z m430 19 c0
-8 -6 -18 -13 -25 -11 -8 -13 -5 -9 19 4 29 22 33 22 6z"/>
<path d="M276 174 c-9 -8 -16 -19 -16 -24 0 -14 30 -40 46 -40 27 0 54 20 54
40 0 36 -57 52 -84 24z m59 -24 c0 -18 -33 -26 -47 -12 -6 6 -7 15 -3 22 10
16 50 8 50 -10z"/>
</g>
</svg>
